PathFileType	4	(X/Y/Z)	/Users/visionmauri/Downloads/Videos/OAW05-top_Sports2D/OAW05-top_Sports2D_px_person00.trc
DataRate	CameraRate	NumFrames	NumMarkers	Units	OrigDataRate	OrigDataStartFrame	OrigNumFrames
28.0	28.0	5	22	m	28.0	1909	2182
Frame#	Time	Hip			RHip			RKnee			RAnkle			RBigToe			RSmallToe			RHeel			LHip			LKnee			LAnkle			LBigToe			LSmallToe			LHeel			Neck			Head			Nose			RShoulder			RElbow			RWrist			LShoulder			LElbow			LWrist			
		X1	Y1	Z1	X2	Y2	Z2	X3	Y3	Z3	X4	Y4	Z4	X5	Y5	Z5	X6	Y6	Z6	X7	Y7	Z7	X8	Y8	Z8	X9	Y9	Z9	X10	Y10	Z10	X11	Y11	Z11	X12	Y12	Z12	X13	Y13	Z13	X14	Y14	Z14	X15	Y15	Z15	X16	Y16	Z16	X17	Y17	Z17	X18	Y18	Z18	X19	Y19	Z19	X20	Y20	Z20	X21	Y21	Z21	X22	Y22	Z22
1909	68.20983166306412	527.6723381303343	463.330727520544	0.0	540.0185156727291	464.8738538930318	0.0	529.2151014789414	521.1980244308957	0.0	523.0414624945612	572.120404471724	0.0	516.0972322115168	595.2670772377364	0.0	525.3566325179455	595.2681202708866	0.0	519.1835564909887	586.0109141870837	0.0	514.5556712398801	464.1030692621154	0.0	512.242605034916	518.8808339882402	0.0	513.0139273328512	568.2608762335582	0.0	520.7306098816749	599.1265329347436	0.0	511.4692024650448	596.8092578799694	0.0	516.0994594605676	581.3786439757208	0.0	531.5320731705743	381.54711488844083	0.0	533.0777060375774	350.68477444729456	0.0	533.8524904290041	371.52245967035907	0.0	555.4494296143695	391.5765498547155	0.0	562.3927331600134	434.7834906918504	0.0	562.3932173739522	475.6755813942755	0.0	508.3853553385542	388.48952415545534	0.0	498.35440009999104	430.1531294037151	0.0	493.725413392765	468.731771511252	0.0
1910	68.24556232396672	527.6556342275762	463.2680833761985	0.0	540.0043439862712	464.8181670311692	0.0	529.2482648171216	521.1170791550725	0.0	523.1097480605347	572.0385007414627	0.0	516.1828005206395	595.1283844935998	0.0	525.4432494557185	595.1414576094458	0.0	519.265782631316	585.9238418458689	0.0	514.541234286982	464.0475867269979	0.0	512.2361162915587	518.8136955189892	0.0	513.0132839057452	568.216722747136	0.0	520.7104005138369	599.002091635511	0.0	511.4413493517434	596.6994991099422	0.0	516.08177811665	581.3337665253555	0.0	531.5200028030063	381.5051962513114	0.0	533.0744989392995	350.6245390571544	0.0	533.855999093223	371.4889874180684	0.0	555.4263779494656	391.5338428940647	0.0	562.3746397845101	434.72940874324615	0.0	562.3910766717247	475.60584892122563	0.0	508.37227727272324	388.45103559943607	0.0	498.34157443958844	430.09624028057095	0.0	493.7186471197065	468.6553037429449	0.0
1911	68.28129298486932	527.6529525413946	463.2357380528378	0.0	539.995562988389	464.7886630279399	0.0	529.2688107761624	521.0701708324453	0.0	523.151844883678	571.989542723195	0.0	516.2339477746917	595.0534254655578	0.0	525.4906197879989	595.066483154472	0.0	519.3147866267159	585.8592464415593	0.0	514.541437854216	464.0143584351476	0.0	512.2318870893686	518.7855354166801	0.0	513.0127053725744	568.193096149443	0.0	520.6952481829866	598.9246676938627	0.0	511.4371673996686	596.6416259482177	0.0	516.0770950494317	581.3024116020183	0.0	531.5092957308798	381.4803610940265	0.0	533.0549105808362	350.5942297123416	0.0	533.823107057605	371.44054387619246	0.0	555.4138109789229	391.51200290930325	0.0	562.3672863105782	434.70089405701833	0.0	562.3882026822994	475.5698672710968	0.0	508.3627856045353	388.4352293200627	0.0	498.3364660785776	430.0719357435365	0.0	493.7147047891764	468.6158743108297	0.0
1912	68.31702364577193	527.7399578323268	463.5300979669218	0.0	540.0600575650278	465.04925527182553	0.0	529.1178825561336	521.4431999687285	0.0	522.8407743989292	572.3648479308158	0.0	515.8418486365338	595.7003360685811	0.0	525.0874061190104	595.6479436941942	0.0	518.9377937923905	586.240257763334	0.0	514.6202477247963	464.26850345725575	0.0	512.2611180449857	519.1103349595975	0.0	513.0153759213886	568.3993827510602	0.0	520.7834513835091	599.4905374401419	0.0	511.5826603883833	597.1556531569058	0.0	516.1665489100477	581.5015628947635	0.0	531.5596023032676	381.67276140764693	0.0	533.0442879079325	350.8784061372877	0.0	533.7568985991394	371.55318207458623	0.0	555.5211767371693	391.7129819968875	0.0	562.4551550393046	434.95417510420424	0.0	562.3957276178737	475.89756852237076	0.0	508.4203140951153	388.62191054310733	0.0	498.3989019814937	430.3465162476535	0.0	493.74585615779466	468.97526700286835	0.0
1913	68.35275430667453	527.879199091379	464.127757021161	0.0	540.2002190205536	465.58308078601056	0.0	528.7898976872616	522.2327756711196	0.0	522.1661379127722	573.1688323457581	0.0	515.0018961997266	597.0348733257521	0.0	524.2520709322653	596.8887916132146	0.0	518.1311413784381	587.1374645748888	0.0	514.7320550200997	464.81334702967035	0.0	512.325999898287	519.7288440914821	0.0	513.0223486175763	568.8234367405744	0.0	520.992232993085	600.7223697414785	0.0	511.8138590913827	598.2068775665329	0.0	516.320183264817	581.9574258159716	0.0	531.6899113064453	382.08349285234334	0.0	533.1356034771622	351.45040176503403	0.0	533.8409285805999	371.97803360931107	0.0	555.7433524159627	392.11971480204016	0.0	562.6210418217927	435.4721449464337	0.0	562.4221396866935	476.56277408271364	0.0	508.5543600466433	388.97534266265234	0.0	498.5161395270296	430.8721050582372	0.0	493.8119292637664	469.70462975139145	0.0
